<svg width="33" height="32" viewBox="0 0 33 32" fill="none" xmlns="http://www.w3.org/2000/svg">
<path d="M16.5 0.5C7.937 0.5 1 7.438 1 16C1 24.562 7.938 31.5 16.5 31.5C25.063 31.5 32 24.562 32 16C32 7.438 25.062 0.5 16.5 0.5ZM24.113 11.119L21.569 23.107C21.381 23.957 20.875 24.163 20.169 23.763L16.294 20.907L14.425 22.707C14.219 22.913 14.044 23.088 13.644 23.088L13.919 19.144L21.1 12.656C21.413 12.381 21.031 12.225 20.618 12.5L11.743 18.087L7.918 16.893C7.087 16.631 7.068 16.062 8.093 15.662L23.037 9.899C23.731 9.649 24.337 10.068 24.112 11.118L24.113 11.119Z" fill="white" fill-opacity="0.3"/>
</svg>
