<svg width="33" height="32" viewBox="0 0 33 32" fill="none" xmlns="http://www.w3.org/2000/svg">
<path fill-rule="evenodd" clip-rule="evenodd" d="M16.5 31.5C25.0604 31.5 32 24.5604 32 16C32 7.43959 25.0604 0.5 16.5 0.5C7.93959 0.5 1 7.43959 1 16C1 24.5604 7.93959 31.5 16.5 31.5ZM19.9575 8.5C19.9572 9.40775 20.2869 10.2847 20.885 10.9675C22.075 12.3413 23.72 12.2625 23.72 12.2625V14.9663C22.3702 14.9686 21.0539 14.5461 19.9575 13.7587V19.2625C19.9575 22.0188 17.7262 24.25 14.9787 24.25C12.415 24.25 9.99998 22.1763 9.99998 19.2625C9.99998 16.27 12.6425 13.925 15.6612 14.3275V17.0925C14.165 16.6287 12.7125 17.7575 12.7125 19.2625C12.7125 20.5225 13.745 21.5375 14.9875 21.5375C15.575 21.5374 16.1396 21.3093 16.5623 20.9013C16.985 20.4933 17.2329 19.9371 17.2537 19.35V8.5H19.9575Z" fill="white" fill-opacity="0.3"/>
</svg>
