<svg width="33" height="32" viewBox="0 0 33 32" fill="none" xmlns="http://www.w3.org/2000/svg">
<path d="M16.5001 0.640015C8.01694 0.640015 1.14014 7.51682 1.14014 16C1.14014 24.4832 8.01694 31.36 16.5001 31.36C24.9833 31.36 31.8601 24.4832 31.8601 16C31.8601 7.51682 24.9833 0.640015 16.5001 0.640015ZM22.4073 17.9696C22.4073 17.9696 23.7657 19.3104 24.1001 19.9328C24.1097 19.9456 24.1145 19.9584 24.1177 19.9648C24.2537 20.1936 24.2857 20.3712 24.2185 20.504C24.1065 20.7248 23.7225 20.8336 23.5913 20.8432H21.1913C21.0249 20.8432 20.6761 20.8 20.2537 20.5088C19.9289 20.2816 19.6089 19.9088 19.2969 19.5456C18.8313 19.0048 18.4281 18.5376 18.0217 18.5376C17.9701 18.5375 17.9188 18.5456 17.8697 18.5616C17.5625 18.6608 17.1689 19.0992 17.1689 20.2672C17.1689 20.632 16.8809 20.8416 16.6777 20.8416H15.5785C15.2041 20.8416 13.2537 20.7104 11.5257 18.888C9.41054 16.656 7.50654 12.1792 7.49054 12.1376C7.37054 11.848 7.61854 11.6928 7.88894 11.6928H10.3129C10.6361 11.6928 10.7417 11.8896 10.8153 12.064C10.9017 12.2672 11.2185 13.0752 11.7385 13.984C12.5817 15.4656 13.0985 16.0672 13.5129 16.0672C13.5906 16.0663 13.667 16.0465 13.7353 16.0096C14.2761 15.7088 14.1753 13.7808 14.1513 13.3808C14.1513 13.3056 14.1497 12.5184 13.8729 12.1408C13.6745 11.8672 13.3369 11.7632 13.1321 11.7248C13.215 11.6104 13.3242 11.5177 13.4505 11.4544C13.8217 11.2688 14.4905 11.2416 15.1545 11.2416H15.5241C16.2441 11.2512 16.4297 11.2976 16.6905 11.3632C17.2185 11.4896 17.2297 11.8304 17.1833 12.9968C17.1689 13.328 17.1545 13.7024 17.1545 14.144C17.1545 14.24 17.1497 14.3424 17.1497 14.4512C17.1337 15.0448 17.1145 15.7184 17.5337 15.9952C17.5884 16.0295 17.6516 16.0478 17.7161 16.048C17.8617 16.048 18.3001 16.048 19.4873 14.0112C19.8535 13.3556 20.1716 12.6744 20.4393 11.9728C20.4633 11.9312 20.5337 11.8032 20.6169 11.7536C20.6783 11.7223 20.7464 11.7064 20.8153 11.7072H23.6649C23.9753 11.7072 24.1881 11.7536 24.2281 11.8736C24.2985 12.064 24.2153 12.6448 22.9145 14.4064L22.3337 15.1728C21.1545 16.7184 21.1545 16.7968 22.4073 17.9696Z" fill="white" fill-opacity="0.3"/>
</svg>
