<svg width="33" height="32" viewBox="0 0 33 32" fill="none" xmlns="http://www.w3.org/2000/svg">
<path d="M19.0649 15.7328L15.4713 14.056C15.1577 13.9104 14.9001 14.0736 14.9001 14.4208V17.5792C14.9001 17.9264 15.1577 18.0896 15.4713 17.944L19.0633 16.2672C19.3785 16.12 19.3785 15.88 19.0649 15.7328ZM16.5001 0.640015C8.01694 0.640015 1.14014 7.51682 1.14014 16C1.14014 24.4832 8.01694 31.36 16.5001 31.36C24.9833 31.36 31.8601 24.4832 31.8601 16C31.8601 7.51682 24.9833 0.640015 16.5001 0.640015ZM16.5001 22.24C8.63774 22.24 8.50014 21.5312 8.50014 16C8.50014 10.4688 8.63774 9.76001 16.5001 9.76001C24.3625 9.76001 24.5001 10.4688 24.5001 16C24.5001 21.5312 24.3625 22.24 16.5001 22.24Z" fill="white" fill-opacity="0.3"/>
</svg>
