<svg width="32" height="32" viewBox="0 0 32 32" fill="none" xmlns="http://www.w3.org/2000/svg">
<path d="M27 5.00012H5C4.46957 5.00012 3.96086 5.21084 3.58579 5.58591C3.21071 5.96098 3 6.46969 3 7.00012V25.0001C3 25.5306 3.21071 26.0393 3.58579 26.4143C3.96086 26.7894 4.46957 27.0001 5 27.0001H27C27.5304 27.0001 28.0391 26.7894 28.4142 26.4143C28.7893 26.0393 29 25.5306 29 25.0001V7.00012C29 6.46969 28.7893 5.96098 28.4142 5.58591C28.0391 5.21084 27.5304 5.00012 27 5.00012ZM5 11.0001H15V21.0001H5V11.0001ZM17 9.00012V7.00012H21V9.00012H17ZM15 9.00012H11V7.00012H15V9.00012ZM15 23.0001V25.0001H11V23.0001H15ZM17 23.0001H21V25.0001H17V23.0001ZM17 21.0001V11.0001H27V21.0001H17ZM27 9.00012H23V7.00012H27V9.00012ZM9 7.00012V9.00012H5V7.00012H9ZM5 23.0001H9V25.0001H5V23.0001ZM27 25.0001H23V23.0001H27V25.0001Z" fill="#B4FD64"/>
</svg>
