<svg width="20" height="19" viewBox="0 0 20 19" fill="none" xmlns="http://www.w3.org/2000/svg">
<path d="M16.4186 2.36011H3.83145C2.96372 2.36011 2.25806 3.06577 2.25806 3.9335V14.9473C2.25806 15.815 2.96372 16.5207 3.83145 16.5207H16.4186C17.2863 16.5207 17.992 15.815 17.992 14.9473V3.9335C17.992 3.06577 17.2863 2.36011 16.4186 2.36011ZM16.4194 7.08029C16.4186 7.08029 16.4186 7.08029 16.4194 7.08029H16.0536L13.9555 3.9335H16.4186L16.4194 7.08029ZM8.18661 7.08029L6.08849 3.9335H8.13075L10.2289 7.08029H8.18661ZM12.1201 7.08029L10.022 3.9335H12.0642L14.1624 7.08029H12.1201ZM3.83145 3.9335H4.19727L6.29539 7.08029H3.83145V3.9335ZM3.83145 14.9473V8.65368H16.4186L16.4202 14.9473H3.83145Z" fill="white"/>
<path d="M8.55163 14.1606L12.8785 11.8005L8.55163 9.44038V14.1606Z" fill="white"/>
</svg>
