<svg width="24" height="24" viewBox="0 0 24 24" fill="none" xmlns="http://www.w3.org/2000/svg">
<path d="M12.0004 4.55852C10.9079 3.55629 9.47776 3.00005 7.99349 3C7.20789 3.00082 6.4302 3.15661 5.70518 3.45842C4.98016 3.76023 4.32213 4.2021 3.76896 4.75859C1.40951 7.12237 1.41052 10.8196 3.77096 13.1734L11.123 20.5078C11.2935 20.8069 11.6224 21 12.0004 21C12.1557 20.9985 12.3084 20.9607 12.4463 20.8896C12.5842 20.8186 12.7035 20.7163 12.7946 20.5909L20.2299 13.1734C22.5904 10.8186 22.5904 7.12237 20.2279 4.75458C19.675 4.19912 19.0175 3.75815 18.2932 3.45704C17.5689 3.15592 16.7921 3.0006 16.0074 3C14.5232 3.00024 13.0931 3.55646 12.0004 4.55852ZM18.81 6.16906C20.3773 7.74058 20.3783 10.1954 18.812 11.7589L12.0004 18.5542L5.18883 11.7589C3.62256 10.1954 3.62356 7.74058 5.18683 6.17306C5.94891 5.41681 6.94563 5.00067 7.99349 5.00067C9.04136 5.00067 10.0341 5.41681 10.7901 6.17106L11.2915 6.67122C11.3845 6.7642 11.4951 6.83796 11.6167 6.88829C11.7383 6.93862 11.8687 6.96452 12.0004 6.96452C12.1321 6.96452 12.2625 6.93862 12.3842 6.88829C12.5058 6.83796 12.6163 6.7642 12.7094 6.67122L13.2107 6.17106C14.7269 4.66155 17.2959 4.66556 18.81 6.16906Z" fill="#BABABA"/>
</svg>
