<svg width="20" height="19" viewBox="0 0 20 19" fill="none" xmlns="http://www.w3.org/2000/svg">
<path d="M4.86807 17.3072H15.8818C16.2991 17.3072 16.6993 17.1414 16.9944 16.8464C17.2895 16.5513 17.4552 16.1511 17.4552 15.7338V8.65353C17.4558 8.55 17.436 8.44736 17.3968 8.35151C17.3577 8.25566 17.3 8.16848 17.2271 8.09498L10.9335 1.8014C10.7861 1.65487 10.5867 1.57263 10.3789 1.57263C10.1711 1.57263 9.97166 1.65487 9.82427 1.8014L3.53069 8.09498C3.45635 8.16784 3.39722 8.25472 3.35671 8.3506C3.31619 8.44648 3.29511 8.54945 3.29468 8.65353V15.7338C3.29468 16.1511 3.46045 16.5513 3.75551 16.8464C4.05058 17.1414 4.45078 17.3072 4.86807 17.3072ZM8.80156 15.7338V11.8003H11.9483V15.7338H8.80156ZM4.86807 8.97608L10.375 3.4692L15.8818 8.97608V15.7338H13.5217V11.8003C13.5217 11.383 13.356 10.9828 13.0609 10.6878C12.7658 10.3927 12.3656 10.2269 11.9483 10.2269H8.80156C8.38427 10.2269 7.98407 10.3927 7.689 10.6878C7.39393 10.9828 7.22816 11.383 7.22816 11.8003V15.7338H4.86807V8.97608Z" fill="white"/>
</svg>
