<svg width="32" height="32" viewBox="0 0 32 32" fill="none" xmlns="http://www.w3.org/2000/svg">
<path d="M17 24C17 24.7363 16.403 25.3333 15.6666 25.3333C14.9303 25.3333 14.3333 24.7363 14.3333 24C14.3333 23.2636 14.9303 22.6666 15.6666 22.6666C16.403 22.6666 17 23.2636 17 24Z" fill="#B4FD64"/>
<path fill-rule="evenodd" clip-rule="evenodd" d="M8.99998 2.66663H22.3333C23.804 2.66663 25 3.86263 25 5.33329V26.6666C25 28.1373 23.804 29.3333 22.3333 29.3333H8.99998C7.52931 29.3333 6.33331 28.1373 6.33331 26.6666V5.33329C6.33331 3.86263 7.52931 2.66663 8.99998 2.66663ZM8.99998 5.33329V26.6666H22.336L22.3333 5.33329H8.99998Z" fill="#B4FD64"/>
</svg>
