<svg width="44" height="44" viewBox="0 0 44 44" fill="none" xmlns="http://www.w3.org/2000/svg">
<path d="M20.6465 28.646C22.4215 28.6456 24.1453 28.0514 25.5435 26.958L29.9395 31.354L31.3535 29.94L26.9575 25.544C28.0515 24.1457 28.6461 22.4214 28.6465 20.646C28.6465 16.235 25.0575 12.646 20.6465 12.646C16.2355 12.646 12.6465 16.235 12.6465 20.646C12.6465 25.057 16.2355 28.646 20.6465 28.646ZM20.6465 14.646C23.9555 14.646 26.6465 17.337 26.6465 20.646C26.6465 23.955 23.9555 26.646 20.6465 26.646C17.3375 26.646 14.6465 23.955 14.6465 20.646C14.6465 17.337 17.3375 14.646 20.6465 14.646Z" fill="#BABABA"/>
</svg>
