<svg width="20" height="19" viewBox="0 0 20 19" fill="none" xmlns="http://www.w3.org/2000/svg">
<path d="M15.3818 2.36011H4.36807C3.50035 2.36011 2.79468 3.06577 2.79468 3.9335V14.9473C2.79468 15.815 3.50035 16.5207 4.36807 16.5207H15.3818C16.2496 16.5207 16.9552 15.815 16.9552 14.9473V3.9335C16.9552 3.06577 16.2496 2.36011 15.3818 2.36011ZM7.51486 8.65368V3.9335H12.235V8.65368H7.51486ZM12.235 10.2271V14.9473H7.51486V10.2271H12.235ZM4.36807 3.9335H5.94147V5.5069H4.36807V3.9335ZM4.36807 7.08029H5.94147V8.65368H4.36807V7.08029ZM4.36807 10.2271H5.94147V11.8005H4.36807V10.2271ZM4.36807 13.3739H5.94147V14.9473H4.36807V13.3739ZM15.3834 14.9473H13.8084V13.3739H15.3834V14.9473ZM15.3826 11.8005H13.8084V10.2271H15.3826V11.8005ZM15.3826 8.65368H13.8084V7.08029H15.3826V8.65368ZM13.8084 5.5069V3.9335H15.3818V5.5069H13.8084Z" fill="white"/>
</svg>
