<svg width="24" height="24" viewBox="0 0 24 24" fill="none" xmlns="http://www.w3.org/2000/svg">
<path d="M21.7075 20.293L19.6845 18.27C21.1849 16.5263 22.0068 14.3003 21.9995 12C21.9995 7.90897 19.5275 4.54697 16.0005 2.99997V4.99997C18.3875 6.38597 19.9995 9.04697 19.9995 12C19.9951 13.7765 19.4077 15.5025 18.3275 16.913L17.0425 15.628C17.6445 14.536 18.0005 13.19 18.0005 12C18.0005 10.229 17.2255 8.09997 16.0005 6.99997V14.586L14.0005 12.586V3.99997C14.0004 3.81908 13.9512 3.64161 13.8583 3.48645C13.7653 3.3313 13.632 3.20426 13.4725 3.11889C13.313 3.03351 13.1334 2.99298 12.9527 3.00163C12.772 3.01027 12.5971 3.06776 12.4465 3.16797L7.72749 6.31297L3.70749 2.29297L2.29349 3.70697L20.2935 21.707L21.7075 20.293ZM12.0005 5.86797V10.586L9.16949 7.75497L12.0005 5.86797ZM4.00049 17H6.69749L12.4455 20.832C12.5963 20.9321 12.7713 20.9896 12.9521 20.9984C13.1329 21.0072 13.3127 20.967 13.4725 20.882C13.6321 20.7965 13.7655 20.6693 13.8585 20.514C13.9515 20.3587 14.0006 20.181 14.0005 20V18.121L12.0005 16.121V18.132L7.55549 15.168C7.53049 15.151 7.49949 15.148 7.47349 15.135C7.3554 15.0707 7.2254 15.0312 7.09149 15.019C7.05949 15.016 7.03249 15 7.00049 15H4.00049V8.99997H4.87949L3.10249 7.22297C2.77238 7.38821 2.49459 7.6418 2.30003 7.95553C2.10547 8.26926 2.00178 8.63081 2.00049 8.99997V15C2.00049 16.103 2.89749 17 4.00049 17Z" fill="#BABABA"/>
</svg>
