<svg width="32" height="32" viewBox="0 0 32 32" fill="none" xmlns="http://www.w3.org/2000/svg">
<path d="M8.89992 19.5651L6.8648 28.3776C6.80178 28.6444 6.8207 28.9241 6.91908 29.18C7.01747 29.4359 7.19075 29.6563 7.41629 29.8122C7.64183 29.9681 7.90915 30.0524 8.18333 30.054C8.45751 30.0556 8.72581 29.9745 8.95319 29.8213L16.3903 24.8633L23.8273 29.8213C24.06 29.9758 24.3344 30.0553 24.6136 30.0492C24.8928 30.043 25.1634 29.9516 25.389 29.7871C25.6147 29.6225 25.7846 29.3929 25.8758 29.1289C25.967 28.865 25.9752 28.5794 25.8993 28.3107L23.4012 19.5692L29.5967 13.9938C29.7951 13.8151 29.9368 13.5822 30.0043 13.3239C30.0718 13.0655 30.062 12.793 29.9763 12.5402C29.8905 12.2873 29.7325 12.0651 29.5219 11.9011C29.3112 11.737 29.057 11.6383 28.7908 11.6172L21.0041 10.9971L17.6346 3.53818C17.5271 3.298 17.3525 3.09405 17.1317 2.95095C16.9109 2.80784 16.6534 2.73169 16.3903 2.73169C16.1271 2.73169 15.8697 2.80784 15.6489 2.95095C15.4281 3.09405 15.2534 3.298 15.146 3.53818L11.7764 10.9971L3.98968 11.6158C3.72805 11.6366 3.47794 11.7322 3.26926 11.8914C3.06058 12.0505 2.90217 12.2664 2.81298 12.5132C2.72379 12.7601 2.7076 13.0274 2.76634 13.2831C2.82508 13.5389 2.95627 13.7724 3.14421 13.9555L8.89992 19.5651ZM12.7967 13.6564C13.0405 13.6372 13.2746 13.5528 13.4746 13.412C13.6745 13.2711 13.8329 13.0791 13.9331 12.856L16.3903 7.41857L18.8474 12.856C18.9476 13.0791 19.106 13.2711 19.3059 13.412C19.5059 13.5528 19.74 13.6372 19.9838 13.6564L25.409 14.0867L20.9413 18.1077C20.5534 18.4574 20.399 18.9955 20.5411 19.4982L22.2525 25.4874L17.1497 22.0851C16.9257 21.9348 16.6621 21.8545 16.3923 21.8545C16.1226 21.8545 15.8589 21.9348 15.6349 22.0851L10.3027 25.6404L11.7368 19.4313C11.7894 19.2029 11.7823 18.9648 11.7163 18.74C11.6503 18.5151 11.5275 18.311 11.3598 18.1474L7.21036 14.1017L12.7967 13.6564Z" fill="#B4FD64"/>
</svg>
