<svg width="20" height="19" viewBox="0 0 20 19" fill="none" xmlns="http://www.w3.org/2000/svg">
<path d="M3.33139 16.9927H15.9185C16.7863 16.9927 17.4919 16.287 17.4919 15.4193V6.76561C17.4919 5.89789 16.7863 5.19222 15.9185 5.19222H12.7718L14.1878 3.30414L12.9291 2.36011L10.805 5.19222L8.44493 5.19222L6.32084 2.36011L5.06213 3.30414L6.47818 5.19222H3.33139C2.46367 5.19222 1.758 5.89789 1.758 6.76561L1.758 15.4193C1.758 16.287 2.46367 16.9927 3.33139 16.9927ZM15.9185 6.76561L15.9185 15.4193L3.33139 15.4193L3.33061 6.76561L15.9185 6.76561Z" fill="white"/>
<path d="M4.90479 9.44037H8.05157V11.0138H4.90479V9.44037Z" fill="white"/>
</svg>
